;PTH Drill file created by EasyEDA 
M48
INCH,LZ
;Holesize 1 = 0.035 INCH
T01C0.035
;Holesize 2 = 0.036 INCH
T02C0.036
;Holesize 3 = 0.039 INCH
T03C0.039
;Holesize 4 = 0.040 INCH
T04C0.040
%
G05
G90
T01
X002300Y024200
X002300Y024986
X002300Y025775
T02
X015800Y017900
X015800Y016900
X015800Y015900
X015800Y014900
X015800Y013900
X015800Y012900
X015800Y011900
X015800Y010900
X015800Y009900
X015800Y008900
X015800Y007900
X015800Y006900
X015800Y005900
X015800Y004900
X015800Y003900
X009800Y017900
X009800Y016900
X009800Y015900
X009800Y014900
X009800Y013900
X009800Y012900
X009800Y011900
X009800Y010900
X009800Y009900
X009800Y008900
X009800Y007900
X009800Y006900
X009800Y005900
X009800Y004900
X009800Y003900
X013600Y021100
X014600Y021100
X015600Y021100
X002500Y003100
X002500Y004100
X003500Y003100
X003500Y004100
X004500Y003100
X004500Y004100
X005500Y003100
X005500Y004100
X010500Y020700
X011400Y020700
X010500Y022200
X011400Y022200
X010500Y023600
X011400Y023600
X010500Y025000
X011400Y025000
X013300Y026500
X015900Y026500
T03
X017800Y013200
X017800Y018948
X008800Y017948
X008800Y014200
X008800Y018948
X008800Y013200
T04
X005900Y021100
X004900Y021100
X003900Y021100
X002900Y021100
X001900Y021100
X005900Y018200
X004900Y018200
X003900Y018200
X002900Y018200
X001900Y018200
X002300Y026660
X002103Y026660
X002496Y026660
X002300Y023314
X002103Y023314
X002496Y023314
M30
