G04 ---------------------------- Layer name :TOP SOLDER LAYER*
G04 EasyEDA v5.6.15, Mon, 30 Jul 2018 20:20:11 GMT*
G04 7679f8372ec74d379c0269816b79f434*
G04 Gerber Generator version 0.2*
G04 Scale: 100 percent, Rotated: No, Reflected: No *
G04 Dimensions in inches *
G04 leading zeros omitted , absolute positions ,2 integer and 4 decimal *
%FSLAX24Y24*%
%MOIN*%
G90*
G70D02*

%ADD12R,0.078000X0.078000*%
%ADD13C,0.078000*%
%ADD14R,0.063700X0.063700*%
%ADD15C,0.063700*%
%ADD16R,0.086740X0.086740*%
%ADD17C,0.067000*%
%ADD18R,0.067000X0.067000*%
%ADD19C,0.068000*%
%ADD20R,0.128000X0.078000*%
%ADD21R,0.008000X0.008000*%

%LPD*%
G54D12*
G01X15800Y17900D03*
G54D13*
G01X15800Y16900D03*
G01X15800Y15900D03*
G01X15800Y14900D03*
G01X15800Y13900D03*
G01X15800Y12900D03*
G01X15800Y11900D03*
G01X15800Y10900D03*
G01X15800Y9900D03*
G01X15800Y8900D03*
G01X15800Y7900D03*
G01X15800Y6900D03*
G01X15800Y5900D03*
G01X15800Y4900D03*
G01X15800Y3900D03*
G01X9800Y17900D03*
G01X9800Y16900D03*
G01X9800Y15900D03*
G01X9800Y14900D03*
G01X9800Y13900D03*
G01X9800Y12900D03*
G01X9800Y11900D03*
G01X9800Y10900D03*
G01X9800Y9900D03*
G01X9800Y8900D03*
G01X9800Y7900D03*
G01X9800Y6900D03*
G01X9800Y5900D03*
G01X9800Y4900D03*
G01X9800Y3900D03*
G54D14*
G01X5900Y21100D03*
G54D15*
G01X4900Y21100D03*
G01X3900Y21100D03*
G01X2900Y21100D03*
G01X1900Y21100D03*
G54D14*
G01X5900Y18200D03*
G54D15*
G01X4900Y18200D03*
G01X3900Y18200D03*
G01X2900Y18200D03*
G01X1900Y18200D03*
G54D16*
G01X17800Y13200D03*
G01X17800Y18948D03*
G01X8800Y17948D03*
G01X8800Y14200D03*
G01X8800Y18948D03*
G01X8800Y13200D03*
G54D17*
G01X13600Y21100D03*
G54D18*
G01X14600Y21100D03*
G54D17*
G01X15600Y21100D03*
G54D19*
G01X2500Y3100D03*
G01X2500Y4100D03*
G01X3500Y3100D03*
G01X3500Y4100D03*
G01X4500Y3100D03*
G01X4500Y4100D03*
G01X5500Y3100D03*
G01X5500Y4100D03*
G01X2300Y24200D03*
G01X2300Y24986D03*
G01X2300Y25775D03*
G54D20*
G01X2300Y26660D03*
G54D21*
G01X2103Y26660D03*
G01X2496Y26660D03*
G54D20*
G01X2300Y23314D03*
G54D21*
G01X2103Y23314D03*
G01X2496Y23314D03*
G54D19*
G01X10500Y20700D03*
G01X11400Y20700D03*
G01X10500Y22200D03*
G01X11400Y22200D03*
G01X10500Y23600D03*
G01X11400Y23600D03*
G01X10500Y25000D03*
G01X11400Y25000D03*
G01X13300Y26500D03*
G01X15900Y26500D03*
M00*
M02*
