G04 ---------------------------- Layer name :BOTTOM SILK LAYER*
G04 EasyEDA v5.6.15, Mon, 30 Jul 2018 20:20:11 GMT*
G04 7679f8372ec74d379c0269816b79f434*
G04 Gerber Generator version 0.2*
G04 Scale: 100 percent, Rotated: No, Reflected: No *
G04 Dimensions in inches *
G04 leading zeros omitted , absolute positions ,2 integer and 4 decimal *
%FSLAX24Y24*%
%MOIN*%
G90*
G70D02*

%ADD11C,0.010000*%
%ADD22C,0.007000*%
%ADD23C,0.008000*%
%ADD25C,0.011810*%
%ADD26C,0.007874*%

%LPD*%
G54D11*
G01X16300Y2400D02*
G01X9300Y2400D01*
G01X9300Y2400D02*
G01X9300Y19400D01*
G01X9300Y19400D02*
G01X16300Y19400D01*
G01X16300Y19400D02*
G01X16300Y2400D01*
G01X14300Y3900D02*
G01X14300Y900D01*
G01X11300Y900D01*
G01X11300Y3900D01*
G01X14300Y3900D01*
G01X6400Y20600D02*
G01X6400Y21600D01*
G01X6400Y21600D02*
G01X5400Y21600D01*
G01X5400Y21600D02*
G01X1400Y21600D01*
G01X1400Y21600D02*
G01X1400Y20600D01*
G01X1400Y20600D02*
G01X5400Y20600D01*
G01X5400Y20600D02*
G01X6400Y20600D01*
G01X5400Y20600D02*
G01X5400Y21600D01*
G01X6400Y17700D02*
G01X6400Y18700D01*
G01X6400Y18700D02*
G01X5400Y18700D01*
G01X5400Y18700D02*
G01X1400Y18700D01*
G01X1400Y18700D02*
G01X1400Y17700D01*
G01X1400Y17700D02*
G01X5400Y17700D01*
G01X5400Y17700D02*
G01X6400Y17700D01*
G01X5400Y17700D02*
G01X5400Y18700D01*
G01X18300Y12700D02*
G01X18300Y19448D01*
G01X18300Y19448D02*
G01X7300Y19448D01*
G01X7300Y19448D02*
G01X7300Y18948D01*
G01X18300Y12700D02*
G01X7300Y12700D01*
G01X7300Y12700D02*
G01X7300Y13200D01*
G01X7800Y18448D02*
G01X7800Y13700D01*
G54D22*
G01X10735Y1979D02*
G01X10900Y1550D01*
G01X10735Y1979D02*
G01X10572Y1550D01*
G01X10839Y1693D02*
G01X10634Y1693D01*
G01X10438Y1836D02*
G01X10438Y1550D01*
G01X10438Y1714D02*
G01X10417Y1775D01*
G01X10376Y1816D01*
G01X10335Y1836D01*
G01X10273Y1836D01*
G01X9893Y1979D02*
G01X9893Y1550D01*
G01X9893Y1775D02*
G01X9935Y1816D01*
G01X9975Y1836D01*
G01X10036Y1836D01*
G01X10077Y1816D01*
G01X10118Y1775D01*
G01X10139Y1714D01*
G01X10139Y1673D01*
G01X10118Y1611D01*
G01X10077Y1570D01*
G01X10036Y1550D01*
G01X9975Y1550D01*
G01X9935Y1570D01*
G01X9893Y1611D01*
G01X9759Y1836D02*
G01X9759Y1632D01*
G01X9738Y1570D01*
G01X9697Y1550D01*
G01X9635Y1550D01*
G01X9594Y1570D01*
G01X9534Y1632D01*
G01X9534Y1836D02*
G01X9534Y1550D01*
G01X9398Y1979D02*
G01X9377Y1959D01*
G01X9357Y1979D01*
G01X9377Y2000D01*
G01X9398Y1979D01*
G01X9377Y1836D02*
G01X9377Y1550D01*
G01X9222Y1836D02*
G01X9222Y1550D01*
G01X9222Y1754D02*
G01X9160Y1816D01*
G01X9119Y1836D01*
G01X9059Y1836D01*
G01X9018Y1816D01*
G01X8997Y1754D01*
G01X8997Y1550D01*
G01X8760Y1836D02*
G01X8801Y1816D01*
G01X8842Y1775D01*
G01X8863Y1714D01*
G01X8863Y1673D01*
G01X8842Y1611D01*
G01X8801Y1570D01*
G01X8760Y1550D01*
G01X8698Y1550D01*
G01X8657Y1570D01*
G01X8617Y1611D01*
G01X8597Y1673D01*
G01X8597Y1714D01*
G01X8617Y1775D01*
G01X8657Y1816D01*
G01X8698Y1836D01*
G01X8760Y1836D01*
G54D23*
G01X8261Y18227D02*
G01X8261Y17844D01*
G01X8261Y18227D02*
G01X8135Y18227D01*
G01X8080Y18209D01*
G01X8043Y18173D01*
G01X8026Y18136D01*
G01X8006Y18082D01*
G01X8006Y17990D01*
G01X8026Y17936D01*
G01X8043Y17900D01*
G01X8080Y17863D01*
G01X8135Y17844D01*
G01X8261Y17844D01*
G01X7886Y18153D02*
G01X7851Y18173D01*
G01X7797Y18227D01*
G01X7797Y17844D01*
G01X7348Y18300D02*
G01X7677Y17717D01*
G01X7102Y18227D02*
G01X7102Y17844D01*
G01X7228Y18227D02*
G01X6975Y18227D01*
G01X6855Y18227D02*
G01X6600Y17844D01*
G01X6600Y18227D02*
G01X6855Y17844D01*
G01X14649Y17009D02*
G01X14667Y17046D01*
G01X14704Y17082D01*
G01X14740Y17100D01*
G01X14813Y17100D01*
G01X14849Y17082D01*
G01X14886Y17046D01*
G01X14904Y17009D01*
G01X14922Y16955D01*
G01X14922Y16864D01*
G01X14904Y16809D01*
G01X14886Y16773D01*
G01X14849Y16737D01*
G01X14813Y16718D01*
G01X14740Y16718D01*
G01X14704Y16737D01*
G01X14667Y16773D01*
G01X14649Y16809D01*
G01X14649Y16864D01*
G01X14740Y16864D02*
G01X14649Y16864D01*
G01X14529Y17100D02*
G01X14529Y16718D01*
G01X14529Y17100D02*
G01X14275Y16718D01*
G01X14275Y17100D02*
G01X14275Y16718D01*
G01X14155Y17100D02*
G01X14155Y16718D01*
G01X14155Y17100D02*
G01X14027Y17100D01*
G01X13973Y17082D01*
G01X13937Y17046D01*
G01X13918Y17009D01*
G01X13900Y16955D01*
G01X13900Y16864D01*
G01X13918Y16809D01*
G01X13937Y16773D01*
G01X13973Y16737D01*
G01X14027Y16718D01*
G01X14155Y16718D01*
G01X14848Y15046D02*
G01X14848Y14718D01*
G01X15012Y14882D02*
G01X14685Y14882D01*
G01X14347Y15100D02*
G01X14528Y15100D01*
G01X14547Y14937D01*
G01X14528Y14955D01*
G01X14474Y14973D01*
G01X14419Y14973D01*
G01X14365Y14955D01*
G01X14328Y14918D01*
G01X14310Y14864D01*
G01X14310Y14827D01*
G01X14328Y14773D01*
G01X14365Y14737D01*
G01X14419Y14718D01*
G01X14474Y14718D01*
G01X14528Y14737D01*
G01X14547Y14755D01*
G01X14565Y14791D01*
G01X14190Y15100D02*
G01X14045Y14718D01*
G01X13899Y15100D02*
G01X14045Y14718D01*
G01X8987Y4026D02*
G01X8987Y3644D01*
G01X8987Y4026D02*
G01X8860Y4026D01*
G01X8805Y4009D01*
G01X8769Y3973D01*
G01X8751Y3936D01*
G01X8732Y3882D01*
G01X8732Y3790D01*
G01X8751Y3736D01*
G01X8769Y3700D01*
G01X8805Y3663D01*
G01X8860Y3644D01*
G01X8987Y3644D01*
G01X8612Y3953D02*
G01X8576Y3973D01*
G01X8522Y4026D01*
G01X8522Y3644D01*
G01X8383Y3936D02*
G01X8383Y3953D01*
G01X8365Y3990D01*
G01X8347Y4009D01*
G01X8311Y4026D01*
G01X8238Y4026D01*
G01X8202Y4009D01*
G01X8183Y3990D01*
G01X8165Y3953D01*
G01X8165Y3917D01*
G01X8183Y3882D01*
G01X8220Y3826D01*
G01X8402Y3644D01*
G01X8147Y3644D01*
G01X7700Y4100D02*
G01X8027Y3517D01*
G01X8987Y3226D02*
G01X8987Y2844D01*
G01X8987Y3226D02*
G01X8842Y2844D01*
G01X8696Y3226D02*
G01X8842Y2844D01*
G01X8696Y3226D02*
G01X8696Y2844D01*
G01X8576Y3226D02*
G01X8576Y2844D01*
G01X8202Y3173D02*
G01X8238Y3209D01*
G01X8292Y3226D01*
G01X8365Y3226D01*
G01X8420Y3209D01*
G01X8456Y3173D01*
G01X8456Y3136D01*
G01X8438Y3100D01*
G01X8420Y3082D01*
G01X8383Y3063D01*
G01X8274Y3026D01*
G01X8238Y3009D01*
G01X8220Y2990D01*
G01X8202Y2953D01*
G01X8202Y2900D01*
G01X8238Y2863D01*
G01X8292Y2844D01*
G01X8365Y2844D01*
G01X8420Y2863D01*
G01X8456Y2900D01*
G01X7972Y3226D02*
G01X8009Y3209D01*
G01X8045Y3173D01*
G01X8063Y3136D01*
G01X8082Y3082D01*
G01X8082Y2990D01*
G01X8063Y2936D01*
G01X8045Y2900D01*
G01X8009Y2863D01*
G01X7972Y2844D01*
G01X7900Y2844D01*
G01X7863Y2863D01*
G01X7827Y2900D01*
G01X7809Y2936D01*
G01X7791Y2990D01*
G01X7791Y3082D01*
G01X7809Y3136D01*
G01X7827Y3173D01*
G01X7863Y3209D01*
G01X7900Y3226D01*
G01X7972Y3226D01*
G01X14985Y18100D02*
G01X14840Y17718D01*
G01X14694Y18100D02*
G01X14840Y17718D01*
G01X14574Y18100D02*
G01X14574Y17718D01*
G01X14454Y18100D02*
G01X14454Y17718D01*
G01X14454Y18100D02*
G01X14200Y17718D01*
G01X14200Y18100D02*
G01X14200Y17718D01*
G01X14987Y4126D02*
G01X14987Y3744D01*
G01X14987Y4126D02*
G01X14860Y4126D01*
G01X14805Y4109D01*
G01X14769Y4073D01*
G01X14751Y4036D01*
G01X14732Y3982D01*
G01X14732Y3890D01*
G01X14751Y3836D01*
G01X14769Y3800D01*
G01X14805Y3763D01*
G01X14860Y3744D01*
G01X14987Y3744D01*
G01X14612Y4053D02*
G01X14576Y4073D01*
G01X14522Y4126D01*
G01X14522Y3744D01*
G01X14365Y4126D02*
G01X14165Y4126D01*
G01X14274Y3982D01*
G01X14220Y3982D01*
G01X14183Y3963D01*
G01X14165Y3944D01*
G01X14147Y3890D01*
G01X14147Y3853D01*
G01X14165Y3800D01*
G01X14202Y3763D01*
G01X14256Y3744D01*
G01X14311Y3744D01*
G01X14365Y3763D01*
G01X14383Y3782D01*
G01X14402Y3817D01*
G01X13700Y4200D02*
G01X14027Y3617D01*
G01X14732Y3273D02*
G01X14769Y3309D01*
G01X14823Y3326D01*
G01X14896Y3326D01*
G01X14951Y3309D01*
G01X14987Y3273D01*
G01X14987Y3236D01*
G01X14969Y3200D01*
G01X14951Y3182D01*
G01X14914Y3163D01*
G01X14805Y3126D01*
G01X14769Y3109D01*
G01X14751Y3090D01*
G01X14732Y3053D01*
G01X14732Y3000D01*
G01X14769Y2963D01*
G01X14823Y2944D01*
G01X14896Y2944D01*
G01X14951Y2963D01*
G01X14987Y3000D01*
G01X14340Y3236D02*
G01X14358Y3273D01*
G01X14394Y3309D01*
G01X14431Y3326D01*
G01X14503Y3326D01*
G01X14540Y3309D01*
G01X14576Y3273D01*
G01X14594Y3236D01*
G01X14612Y3182D01*
G01X14612Y3090D01*
G01X14594Y3036D01*
G01X14576Y3000D01*
G01X14540Y2963D01*
G01X14503Y2944D01*
G01X14431Y2944D01*
G01X14394Y2963D01*
G01X14358Y3000D01*
G01X14340Y3036D01*
G01X14220Y3326D02*
G01X14220Y2944D01*
G01X13965Y3326D02*
G01X14220Y3073D01*
G01X14129Y3163D02*
G01X13965Y2944D01*
G01X7948Y14909D02*
G01X7967Y14946D01*
G01X8003Y14982D01*
G01X8039Y15000D01*
G01X8113Y15000D01*
G01X8148Y14982D01*
G01X8185Y14946D01*
G01X8203Y14909D01*
G01X8222Y14855D01*
G01X8222Y14764D01*
G01X8203Y14709D01*
G01X8185Y14673D01*
G01X8148Y14637D01*
G01X8113Y14618D01*
G01X8039Y14618D01*
G01X8003Y14637D01*
G01X7967Y14673D01*
G01X7948Y14709D01*
G01X7948Y14764D01*
G01X8039Y14764D02*
G01X7948Y14764D01*
G01X7828Y15000D02*
G01X7828Y14618D01*
G01X7828Y15000D02*
G01X7575Y14618D01*
G01X7575Y15000D02*
G01X7575Y14618D01*
G01X7455Y15000D02*
G01X7455Y14618D01*
G01X7455Y15000D02*
G01X7327Y15000D01*
G01X7272Y14982D01*
G01X7236Y14946D01*
G01X7218Y14909D01*
G01X7200Y14855D01*
G01X7200Y14764D01*
G01X7218Y14709D01*
G01X7236Y14673D01*
G01X7272Y14637D01*
G01X7327Y14618D01*
G01X7455Y14618D01*
G01X8925Y17027D02*
G01X8925Y16644D01*
G01X8925Y17027D02*
G01X8797Y17027D01*
G01X8743Y17009D01*
G01X8706Y16973D01*
G01X8689Y16936D01*
G01X8669Y16882D01*
G01X8669Y16790D01*
G01X8689Y16736D01*
G01X8706Y16700D01*
G01X8743Y16663D01*
G01X8797Y16644D01*
G01X8925Y16644D01*
G01X8440Y17027D02*
G01X8496Y17009D01*
G01X8531Y16953D01*
G01X8550Y16863D01*
G01X8550Y16809D01*
G01X8531Y16717D01*
G01X8496Y16663D01*
G01X8440Y16644D01*
G01X8405Y16644D01*
G01X8350Y16663D01*
G01X8314Y16717D01*
G01X8296Y16809D01*
G01X8296Y16863D01*
G01X8314Y16953D01*
G01X8350Y17009D01*
G01X8405Y17027D01*
G01X8440Y17027D01*
G01X7848Y17100D02*
G01X8176Y16517D01*
G01X7728Y17027D02*
G01X7728Y16644D01*
G01X7728Y17027D02*
G01X7564Y17027D01*
G01X7510Y17009D01*
G01X7492Y16990D01*
G01X7473Y16953D01*
G01X7473Y16917D01*
G01X7492Y16882D01*
G01X7510Y16863D01*
G01X7564Y16844D01*
G01X7728Y16844D01*
G01X7601Y16844D02*
G01X7473Y16644D01*
G01X7353Y17027D02*
G01X7100Y16644D01*
G01X7100Y17027D02*
G01X7353Y16644D01*
G01X8915Y16100D02*
G01X8915Y15717D01*
G01X8915Y16100D02*
G01X8752Y16100D01*
G01X8697Y16082D01*
G01X8680Y16063D01*
G01X8660Y16026D01*
G01X8660Y15990D01*
G01X8680Y15955D01*
G01X8697Y15936D01*
G01X8752Y15917D01*
G01X8915Y15917D01*
G01X8789Y15917D02*
G01X8660Y15717D01*
G01X8540Y16100D02*
G01X8540Y15717D01*
G01X8540Y16100D02*
G01X8305Y16100D01*
G01X8540Y15917D02*
G01X8396Y15917D01*
G01X8540Y15717D02*
G01X8305Y15717D01*
G01X7931Y16046D02*
G01X7967Y16082D01*
G01X8021Y16100D01*
G01X8093Y16100D01*
G01X8148Y16082D01*
G01X8185Y16046D01*
G01X8185Y16009D01*
G01X8167Y15973D01*
G01X8148Y15955D01*
G01X8111Y15936D01*
G01X8002Y15900D01*
G01X7967Y15882D01*
G01X7948Y15863D01*
G01X7931Y15826D01*
G01X7931Y15773D01*
G01X7967Y15736D01*
G01X8021Y15717D01*
G01X8093Y15717D01*
G01X8148Y15736D01*
G01X8185Y15773D01*
G01X7810Y16100D02*
G01X7810Y15717D01*
G01X7810Y16100D02*
G01X7573Y16100D01*
G01X7810Y15917D02*
G01X7664Y15917D01*
G01X7810Y15717D02*
G01X7573Y15717D01*
G01X7327Y16100D02*
G01X7327Y15717D01*
G01X7453Y16100D02*
G01X7200Y16100D01*
G01X8228Y14100D02*
G01X8228Y13718D01*
G01X8228Y14100D02*
G01X8102Y14100D01*
G01X8047Y14082D01*
G01X8010Y14046D01*
G01X7993Y14009D01*
G01X7973Y13955D01*
G01X7973Y13864D01*
G01X7993Y13809D01*
G01X8010Y13773D01*
G01X8047Y13737D01*
G01X8102Y13718D01*
G01X8228Y13718D01*
G01X7835Y14009D02*
G01X7835Y14027D01*
G01X7818Y14064D01*
G01X7800Y14082D01*
G01X7764Y14100D01*
G01X7690Y14100D01*
G01X7653Y14082D01*
G01X7635Y14064D01*
G01X7618Y14027D01*
G01X7618Y13991D01*
G01X7635Y13955D01*
G01X7672Y13900D01*
G01X7853Y13718D01*
G01X7600Y13718D01*
G01X8228Y13100D02*
G01X8228Y12718D01*
G01X8228Y13100D02*
G01X8102Y13100D01*
G01X8047Y13082D01*
G01X8010Y13046D01*
G01X7993Y13009D01*
G01X7973Y12955D01*
G01X7973Y12864D01*
G01X7993Y12809D01*
G01X8010Y12773D01*
G01X8047Y12737D01*
G01X8102Y12718D01*
G01X8228Y12718D01*
G01X7818Y13100D02*
G01X7618Y13100D01*
G01X7727Y12955D01*
G01X7672Y12955D01*
G01X7635Y12937D01*
G01X7618Y12918D01*
G01X7600Y12864D01*
G01X7600Y12827D01*
G01X7618Y12773D01*
G01X7653Y12737D01*
G01X7709Y12718D01*
G01X7764Y12718D01*
G01X7818Y12737D01*
G01X7835Y12755D01*
G01X7853Y12791D01*
G01X8947Y12100D02*
G01X8947Y11718D01*
G01X8947Y12100D02*
G01X8819Y12100D01*
G01X8764Y12082D01*
G01X8728Y12046D01*
G01X8710Y12009D01*
G01X8692Y11955D01*
G01X8692Y11864D01*
G01X8710Y11809D01*
G01X8728Y11773D01*
G01X8764Y11737D01*
G01X8819Y11718D01*
G01X8947Y11718D01*
G01X8390Y12100D02*
G01X8572Y11846D01*
G01X8300Y11846D01*
G01X8390Y12100D02*
G01X8390Y11718D01*
G01X8928Y11200D02*
G01X8928Y10818D01*
G01X8928Y11200D02*
G01X8802Y11200D01*
G01X8747Y11182D01*
G01X8710Y11146D01*
G01X8693Y11109D01*
G01X8673Y11055D01*
G01X8673Y10964D01*
G01X8693Y10909D01*
G01X8710Y10873D01*
G01X8747Y10837D01*
G01X8802Y10818D01*
G01X8928Y10818D01*
G01X8335Y11200D02*
G01X8518Y11200D01*
G01X8535Y11037D01*
G01X8518Y11055D01*
G01X8464Y11073D01*
G01X8409Y11073D01*
G01X8353Y11055D01*
G01X8318Y11018D01*
G01X8300Y10964D01*
G01X8300Y10927D01*
G01X8318Y10873D01*
G01X8353Y10837D01*
G01X8409Y10818D01*
G01X8464Y10818D01*
G01X8518Y10837D01*
G01X8535Y10855D01*
G01X8553Y10891D01*
G01X8910Y10200D02*
G01X8910Y9818D01*
G01X8910Y10200D02*
G01X8784Y10200D01*
G01X8728Y10182D01*
G01X8693Y10146D01*
G01X8675Y10109D01*
G01X8656Y10055D01*
G01X8656Y9964D01*
G01X8675Y9909D01*
G01X8693Y9873D01*
G01X8728Y9837D01*
G01X8784Y9818D01*
G01X8910Y9818D01*
G01X8318Y10146D02*
G01X8335Y10182D01*
G01X8390Y10200D01*
G01X8427Y10200D01*
G01X8481Y10182D01*
G01X8518Y10127D01*
G01X8535Y10037D01*
G01X8535Y9946D01*
G01X8518Y9873D01*
G01X8481Y9837D01*
G01X8427Y9818D01*
G01X8409Y9818D01*
G01X8355Y9837D01*
G01X8318Y9873D01*
G01X8300Y9927D01*
G01X8300Y9946D01*
G01X8318Y10000D01*
G01X8355Y10037D01*
G01X8409Y10055D01*
G01X8427Y10055D01*
G01X8481Y10037D01*
G01X8518Y10000D01*
G01X8535Y9946D01*
G01X8903Y9117D02*
G01X8903Y8736D01*
G01X8903Y9117D02*
G01X8777Y9117D01*
G01X8722Y9100D01*
G01X8685Y9063D01*
G01X8668Y9026D01*
G01X8648Y8973D01*
G01X8648Y8882D01*
G01X8668Y8826D01*
G01X8685Y8790D01*
G01X8722Y8755D01*
G01X8777Y8736D01*
G01X8903Y8736D01*
G01X8275Y9117D02*
G01X8456Y8736D01*
G01X8528Y9117D02*
G01X8275Y9117D01*
G01X8900Y8200D02*
G01X8900Y7818D01*
G01X8900Y8200D02*
G01X8772Y8200D01*
G01X8718Y8182D01*
G01X8681Y8146D01*
G01X8664Y8109D01*
G01X8644Y8055D01*
G01X8644Y7964D01*
G01X8664Y7909D01*
G01X8681Y7873D01*
G01X8718Y7837D01*
G01X8772Y7818D01*
G01X8900Y7818D01*
G01X8435Y8200D02*
G01X8489Y8182D01*
G01X8506Y8146D01*
G01X8506Y8109D01*
G01X8489Y8073D01*
G01X8452Y8055D01*
G01X8380Y8037D01*
G01X8325Y8018D01*
G01X8289Y7982D01*
G01X8271Y7946D01*
G01X8271Y7891D01*
G01X8289Y7855D01*
G01X8306Y7837D01*
G01X8361Y7818D01*
G01X8435Y7818D01*
G01X8489Y7837D01*
G01X8506Y7855D01*
G01X8525Y7891D01*
G01X8525Y7946D01*
G01X8506Y7982D01*
G01X8471Y8018D01*
G01X8415Y8037D01*
G01X8343Y8055D01*
G01X8306Y8073D01*
G01X8289Y8109D01*
G01X8289Y8146D01*
G01X8306Y8182D01*
G01X8361Y8200D01*
G01X8435Y8200D01*
G01X8910Y7200D02*
G01X8910Y6818D01*
G01X8910Y7200D02*
G01X8784Y7200D01*
G01X8728Y7182D01*
G01X8693Y7146D01*
G01X8675Y7109D01*
G01X8656Y7055D01*
G01X8656Y6964D01*
G01X8675Y6909D01*
G01X8693Y6873D01*
G01X8728Y6837D01*
G01X8784Y6818D01*
G01X8910Y6818D01*
G01X8300Y7073D02*
G01X8318Y7018D01*
G01X8355Y6982D01*
G01X8409Y6964D01*
G01X8427Y6964D01*
G01X8481Y6982D01*
G01X8518Y7018D01*
G01X8535Y7073D01*
G01X8535Y7091D01*
G01X8518Y7146D01*
G01X8481Y7182D01*
G01X8427Y7200D01*
G01X8409Y7200D01*
G01X8355Y7182D01*
G01X8318Y7146D01*
G01X8300Y7073D01*
G01X8300Y6982D01*
G01X8318Y6891D01*
G01X8355Y6837D01*
G01X8409Y6818D01*
G01X8446Y6818D01*
G01X8500Y6837D01*
G01X8518Y6873D01*
G01X8939Y6000D02*
G01X8939Y5618D01*
G01X8939Y6000D02*
G01X8813Y6000D01*
G01X8757Y5982D01*
G01X8722Y5946D01*
G01X8703Y5909D01*
G01X8685Y5855D01*
G01X8685Y5764D01*
G01X8703Y5709D01*
G01X8722Y5673D01*
G01X8757Y5637D01*
G01X8813Y5618D01*
G01X8939Y5618D01*
G01X8564Y5927D02*
G01X8528Y5946D01*
G01X8475Y6000D01*
G01X8475Y5618D01*
G01X8244Y6000D02*
G01X8300Y5982D01*
G01X8335Y5927D01*
G01X8355Y5837D01*
G01X8355Y5782D01*
G01X8335Y5691D01*
G01X8300Y5637D01*
G01X8244Y5618D01*
G01X8209Y5618D01*
G01X8155Y5637D01*
G01X8118Y5691D01*
G01X8100Y5782D01*
G01X8100Y5837D01*
G01X8118Y5927D01*
G01X8155Y5982D01*
G01X8209Y6000D01*
G01X8244Y6000D01*
G01X8939Y5127D02*
G01X8939Y4745D01*
G01X8939Y5127D02*
G01X8813Y5127D01*
G01X8757Y5109D01*
G01X8722Y5073D01*
G01X8703Y5036D01*
G01X8685Y4982D01*
G01X8685Y4891D01*
G01X8703Y4836D01*
G01X8722Y4800D01*
G01X8757Y4764D01*
G01X8813Y4745D01*
G01X8939Y4745D01*
G01X8564Y5054D02*
G01X8528Y5073D01*
G01X8475Y5127D01*
G01X8475Y4745D01*
G01X8355Y5054D02*
G01X8318Y5073D01*
G01X8264Y5127D01*
G01X8264Y4745D01*
G01X7815Y5200D02*
G01X8143Y4618D01*
G01X7696Y5127D02*
G01X7696Y4745D01*
G01X7696Y5127D02*
G01X7551Y4745D01*
G01X7405Y5127D02*
G01X7551Y4745D01*
G01X7405Y5127D02*
G01X7405Y4745D01*
G01X7176Y5127D02*
G01X7213Y5109D01*
G01X7248Y5073D01*
G01X7267Y5036D01*
G01X7285Y4982D01*
G01X7285Y4891D01*
G01X7267Y4836D01*
G01X7248Y4800D01*
G01X7213Y4764D01*
G01X7176Y4745D01*
G01X7103Y4745D01*
G01X7067Y4764D01*
G01X7031Y4800D01*
G01X7013Y4836D01*
G01X6994Y4891D01*
G01X6994Y4982D01*
G01X7013Y5036D01*
G01X7031Y5073D01*
G01X7067Y5109D01*
G01X7103Y5127D01*
G01X7176Y5127D01*
G01X6619Y5073D02*
G01X6656Y5109D01*
G01X6710Y5127D01*
G01X6784Y5127D01*
G01X6838Y5109D01*
G01X6875Y5073D01*
G01X6875Y5036D01*
G01X6856Y5000D01*
G01X6838Y4982D01*
G01X6802Y4964D01*
G01X6693Y4927D01*
G01X6656Y4909D01*
G01X6638Y4891D01*
G01X6619Y4854D01*
G01X6619Y4800D01*
G01X6656Y4764D01*
G01X6710Y4745D01*
G01X6784Y4745D01*
G01X6838Y4764D01*
G01X6875Y4800D01*
G01X6500Y5127D02*
G01X6500Y4745D01*
G01X15003Y5100D02*
G01X14803Y5100D01*
G01X14912Y4955D01*
G01X14857Y4955D01*
G01X14821Y4937D01*
G01X14803Y4918D01*
G01X14784Y4864D01*
G01X14784Y4827D01*
G01X14803Y4773D01*
G01X14839Y4737D01*
G01X14894Y4718D01*
G01X14948Y4718D01*
G01X15003Y4737D01*
G01X15021Y4755D01*
G01X15039Y4791D01*
G01X14664Y5100D02*
G01X14519Y4718D01*
G01X14374Y5100D02*
G01X14519Y4718D01*
G01X14217Y5100D02*
G01X14017Y5100D01*
G01X14126Y4955D01*
G01X14072Y4955D01*
G01X14035Y4937D01*
G01X14017Y4918D01*
G01X13999Y4864D01*
G01X13999Y4827D01*
G01X14017Y4773D01*
G01X14054Y4737D01*
G01X14108Y4718D01*
G01X14163Y4718D01*
G01X14217Y4737D01*
G01X14235Y4755D01*
G01X14254Y4791D01*
G01X14932Y6000D02*
G01X15077Y5618D01*
G01X14932Y6000D02*
G01X14786Y5618D01*
G01X15022Y5746D02*
G01X14841Y5746D01*
G01X14666Y6000D02*
G01X14666Y5618D01*
G01X14666Y6000D02*
G01X14502Y6000D01*
G01X14448Y5982D01*
G01X14430Y5964D01*
G01X14412Y5927D01*
G01X14412Y5891D01*
G01X14430Y5855D01*
G01X14448Y5837D01*
G01X14502Y5818D01*
G01X14666Y5818D01*
G01X14539Y5818D02*
G01X14412Y5618D01*
G01X14292Y6000D02*
G01X14292Y5618D01*
G01X14292Y6000D02*
G01X14055Y6000D01*
G01X14292Y5818D02*
G01X14146Y5818D01*
G01X14292Y5618D02*
G01X14055Y5618D01*
G01X13935Y6000D02*
G01X13935Y5618D01*
G01X13935Y6000D02*
G01X13699Y6000D01*
G01X13935Y5818D02*
G01X13790Y5818D01*
G01X14919Y7000D02*
G01X15064Y6618D01*
G01X14919Y7000D02*
G01X14773Y6618D01*
G01X15009Y6746D02*
G01X14828Y6746D01*
G01X14544Y7000D02*
G01X14599Y6982D01*
G01X14635Y6927D01*
G01X14653Y6837D01*
G01X14653Y6782D01*
G01X14635Y6691D01*
G01X14599Y6637D01*
G01X14544Y6618D01*
G01X14508Y6618D01*
G01X14453Y6637D01*
G01X14417Y6691D01*
G01X14399Y6782D01*
G01X14399Y6837D01*
G01X14417Y6927D01*
G01X14453Y6982D01*
G01X14508Y7000D01*
G01X14544Y7000D01*
G01X14856Y8100D02*
G01X15002Y7718D01*
G01X14856Y8100D02*
G01X14710Y7718D01*
G01X14947Y7846D02*
G01X14765Y7846D01*
G01X14590Y8027D02*
G01X14555Y8046D01*
G01X14500Y8100D01*
G01X14500Y7718D01*
G01X14919Y9000D02*
G01X15064Y8618D01*
G01X14919Y9000D02*
G01X14773Y8618D01*
G01X15009Y8746D02*
G01X14828Y8746D01*
G01X14635Y8909D02*
G01X14635Y8927D01*
G01X14617Y8964D01*
G01X14599Y8982D01*
G01X14562Y9000D01*
G01X14489Y9000D01*
G01X14453Y8982D01*
G01X14435Y8964D01*
G01X14417Y8927D01*
G01X14417Y8891D01*
G01X14435Y8855D01*
G01X14471Y8800D01*
G01X14653Y8618D01*
G01X14399Y8618D01*
G01X14919Y10100D02*
G01X15064Y9718D01*
G01X14919Y10100D02*
G01X14773Y9718D01*
G01X15009Y9846D02*
G01X14828Y9846D01*
G01X14617Y10100D02*
G01X14417Y10100D01*
G01X14526Y9955D01*
G01X14471Y9955D01*
G01X14435Y9937D01*
G01X14417Y9918D01*
G01X14399Y9864D01*
G01X14399Y9827D01*
G01X14417Y9773D01*
G01X14453Y9737D01*
G01X14508Y9718D01*
G01X14562Y9718D01*
G01X14617Y9737D01*
G01X14635Y9755D01*
G01X14653Y9791D01*
G01X14938Y11099D02*
G01X15083Y10717D01*
G01X14938Y11099D02*
G01X14792Y10717D01*
G01X15028Y10845D02*
G01X14847Y10845D01*
G01X14490Y11099D02*
G01X14672Y10845D01*
G01X14399Y10845D01*
G01X14490Y11099D02*
G01X14490Y10717D01*
G01X14919Y12100D02*
G01X15064Y11718D01*
G01X14919Y12100D02*
G01X14773Y11718D01*
G01X15009Y11846D02*
G01X14828Y11846D01*
G01X14435Y12100D02*
G01X14617Y12100D01*
G01X14635Y11937D01*
G01X14617Y11955D01*
G01X14562Y11973D01*
G01X14508Y11973D01*
G01X14453Y11955D01*
G01X14417Y11918D01*
G01X14399Y11864D01*
G01X14399Y11827D01*
G01X14417Y11773D01*
G01X14453Y11737D01*
G01X14508Y11718D01*
G01X14562Y11718D01*
G01X14617Y11737D01*
G01X14635Y11755D01*
G01X14653Y11791D01*
G01X14902Y13100D02*
G01X15047Y12718D01*
G01X14902Y13100D02*
G01X14756Y12718D01*
G01X14992Y12846D02*
G01X14811Y12846D01*
G01X14418Y13046D02*
G01X14436Y13082D01*
G01X14491Y13100D01*
G01X14527Y13100D01*
G01X14582Y13082D01*
G01X14618Y13027D01*
G01X14636Y12937D01*
G01X14636Y12846D01*
G01X14618Y12773D01*
G01X14582Y12737D01*
G01X14527Y12718D01*
G01X14509Y12718D01*
G01X14454Y12737D01*
G01X14418Y12773D01*
G01X14400Y12827D01*
G01X14400Y12846D01*
G01X14418Y12900D01*
G01X14454Y12937D01*
G01X14509Y12955D01*
G01X14527Y12955D01*
G01X14582Y12937D01*
G01X14618Y12900D01*
G01X14636Y12846D01*
G01X14819Y14100D02*
G01X14964Y13718D01*
G01X14819Y14100D02*
G01X14673Y13718D01*
G01X14909Y13846D02*
G01X14728Y13846D01*
G01X14299Y14100D02*
G01X14480Y13718D01*
G01X14553Y14100D02*
G01X14299Y14100D01*
G01X14816Y16100D02*
G01X14816Y15718D01*
G01X14816Y16100D02*
G01X14652Y16100D01*
G01X14598Y16082D01*
G01X14580Y16064D01*
G01X14561Y16027D01*
G01X14561Y15991D01*
G01X14580Y15955D01*
G01X14598Y15937D01*
G01X14652Y15918D01*
G01X14816Y15918D01*
G01X14689Y15918D02*
G01X14561Y15718D01*
G01X14441Y16100D02*
G01X14441Y15718D01*
G01X14441Y16100D02*
G01X14205Y16100D01*
G01X14441Y15918D02*
G01X14296Y15918D01*
G01X14441Y15718D02*
G01X14205Y15718D01*
G01X13831Y16046D02*
G01X13867Y16082D01*
G01X13921Y16100D01*
G01X13994Y16100D01*
G01X14049Y16082D01*
G01X14085Y16046D01*
G01X14085Y16009D01*
G01X14067Y15973D01*
G01X14049Y15955D01*
G01X14012Y15937D01*
G01X13903Y15900D01*
G01X13867Y15882D01*
G01X13849Y15864D01*
G01X13831Y15827D01*
G01X13831Y15773D01*
G01X13867Y15737D01*
G01X13921Y15718D01*
G01X13994Y15718D01*
G01X14049Y15737D01*
G01X14085Y15773D01*
G01X13711Y16100D02*
G01X13711Y15718D01*
G01X13711Y16100D02*
G01X13474Y16100D01*
G01X13711Y15918D02*
G01X13565Y15918D01*
G01X13711Y15718D02*
G01X13474Y15718D01*
G01X13227Y16100D02*
G01X13227Y15718D01*
G01X13354Y16100D02*
G01X13100Y16100D01*
G54D22*
G01X3900Y20300D02*
G01X3900Y19871D01*
G01X3765Y20300D02*
G01X3765Y19871D01*
G01X3765Y20300D02*
G01X3580Y20300D01*
G01X3519Y20280D01*
G01X3498Y20259D01*
G01X3478Y20219D01*
G01X3478Y20178D01*
G01X3498Y20136D01*
G01X3519Y20115D01*
G01X3580Y20096D01*
G01X3765Y20096D01*
G01X3621Y20096D02*
G01X3478Y19871D01*
G01X4513Y17338D02*
G01X4555Y17380D01*
G01X4615Y17400D01*
G01X4698Y17400D01*
G01X4759Y17380D01*
G01X4800Y17338D01*
G01X4800Y17298D01*
G01X4780Y17257D01*
G01X4759Y17236D01*
G01X4717Y17215D01*
G01X4594Y17175D01*
G01X4555Y17155D01*
G01X4534Y17134D01*
G01X4513Y17094D01*
G01X4513Y17032D01*
G01X4555Y16990D01*
G01X4615Y16971D01*
G01X4698Y16971D01*
G01X4759Y16990D01*
G01X4800Y17032D01*
G01X4132Y17196D02*
G01X4173Y17236D01*
G01X4215Y17257D01*
G01X4276Y17257D01*
G01X4317Y17236D01*
G01X4357Y17196D01*
G01X4378Y17134D01*
G01X4378Y17094D01*
G01X4357Y17032D01*
G01X4317Y16990D01*
G01X4276Y16971D01*
G01X4215Y16971D01*
G01X4173Y16990D01*
G01X4132Y17032D01*
G01X3998Y17257D02*
G01X3998Y16971D01*
G01X3998Y17134D02*
G01X3978Y17196D01*
G01X3936Y17236D01*
G01X3896Y17257D01*
G01X3834Y17257D01*
G01X3700Y17134D02*
G01X3453Y17134D01*
G01X3453Y17175D01*
G01X3475Y17215D01*
G01X3494Y17236D01*
G01X3536Y17257D01*
G01X3596Y17257D01*
G01X3638Y17236D01*
G01X3678Y17196D01*
G01X3700Y17134D01*
G01X3700Y17094D01*
G01X3678Y17032D01*
G01X3638Y16990D01*
G01X3596Y16971D01*
G01X3536Y16971D01*
G01X3494Y16990D01*
G01X3453Y17032D01*
G01X3319Y17134D02*
G01X3073Y17134D01*
G01X3073Y17175D01*
G01X3094Y17215D01*
G01X3115Y17236D01*
G01X3155Y17257D01*
G01X3217Y17257D01*
G01X3257Y17236D01*
G01X3298Y17196D01*
G01X3319Y17134D01*
G01X3319Y17094D01*
G01X3298Y17032D01*
G01X3257Y16990D01*
G01X3217Y16971D01*
G01X3155Y16971D01*
G01X3115Y16990D01*
G01X3073Y17032D01*
G01X2938Y17257D02*
G01X2938Y16971D01*
G01X2938Y17175D02*
G01X2876Y17236D01*
G01X2836Y17257D01*
G01X2775Y17257D01*
G01X2734Y17236D01*
G01X2713Y17175D01*
G01X2713Y16971D01*
G01X13323Y18400D02*
G01X13323Y18094D01*
G01X13303Y18032D01*
G01X13262Y17991D01*
G01X13200Y17971D01*
G01X13159Y17971D01*
G01X13098Y17991D01*
G01X13057Y18032D01*
G01X13037Y18094D01*
G01X13037Y18400D01*
G01X12902Y18319D02*
G01X12861Y18339D01*
G01X12799Y18400D01*
G01X12799Y17971D01*
G54D25*
G01X14685Y19120D02*
G01X14685Y18636D01*
G01X14927Y18878D02*
G01X14443Y18878D01*
G01X13852Y19200D02*
G01X13852Y18636D01*
G01X13676Y19200D02*
G01X13676Y18636D01*
G01X13676Y19200D02*
G01X13300Y18636D01*
G01X13300Y19200D02*
G01X13300Y18636D01*
G01X14927Y13178D02*
G01X14443Y13178D01*
G01X13852Y13500D02*
G01X13852Y12936D01*
G01X13676Y13500D02*
G01X13676Y12936D01*
G01X13676Y13500D02*
G01X13300Y12936D01*
G01X13300Y13500D02*
G01X13300Y12936D01*
G01X12507Y19100D02*
G01X12561Y19073D01*
G01X12614Y19020D01*
G01X12641Y18966D01*
G01X12668Y18885D01*
G01X12668Y18751D01*
G01X12641Y18671D01*
G01X12614Y18617D01*
G01X12561Y18563D01*
G01X12507Y18536D01*
G01X12400Y18536D01*
G01X12346Y18563D01*
G01X12292Y18617D01*
G01X12265Y18671D01*
G01X12239Y18751D01*
G01X12239Y18885D01*
G01X12265Y18966D01*
G01X12292Y19020D01*
G01X12346Y19073D01*
G01X12400Y19100D01*
G01X12507Y19100D01*
G01X12061Y18912D02*
G01X12061Y18644D01*
G01X12035Y18563D01*
G01X11981Y18536D01*
G01X11900Y18536D01*
G01X11847Y18563D01*
G01X11766Y18644D01*
G01X11766Y18912D02*
G01X11766Y18536D01*
G01X11508Y19100D02*
G01X11508Y18644D01*
G01X11482Y18563D01*
G01X11428Y18536D01*
G01X11374Y18536D01*
G01X11589Y18912D02*
G01X11401Y18912D01*
G01X10542Y19020D02*
G01X10542Y18536D01*
G01X10784Y18778D02*
G01X10300Y18778D01*
G01X12507Y13500D02*
G01X12561Y13473D01*
G01X12614Y13419D01*
G01X12641Y13365D01*
G01X12668Y13284D01*
G01X12668Y13151D01*
G01X12641Y13071D01*
G01X12614Y13017D01*
G01X12561Y12963D01*
G01X12507Y12936D01*
G01X12400Y12936D01*
G01X12346Y12963D01*
G01X12292Y13017D01*
G01X12265Y13071D01*
G01X12239Y13151D01*
G01X12239Y13284D01*
G01X12265Y13365D01*
G01X12292Y13419D01*
G01X12346Y13473D01*
G01X12400Y13500D01*
G01X12507Y13500D01*
G01X12061Y13311D02*
G01X12061Y13044D01*
G01X12035Y12963D01*
G01X11981Y12936D01*
G01X11900Y12936D01*
G01X11847Y12963D01*
G01X11766Y13044D01*
G01X11766Y13311D02*
G01X11766Y12936D01*
G01X11508Y13500D02*
G01X11508Y13044D01*
G01X11482Y12963D01*
G01X11428Y12936D01*
G01X11374Y12936D01*
G01X11589Y13311D02*
G01X11401Y13311D01*
G01X10784Y13178D02*
G01X10300Y13178D01*
G01X12641Y17300D02*
G01X12641Y16736D01*
G01X12641Y17300D02*
G01X12399Y17300D01*
G01X12319Y17273D01*
G01X12292Y17246D01*
G01X12265Y17193D01*
G01X12265Y17139D01*
G01X12292Y17085D01*
G01X12319Y17059D01*
G01X12399Y17032D01*
G01X12641Y17032D02*
G01X12399Y17032D01*
G01X12319Y17005D01*
G01X12292Y16978D01*
G01X12265Y16924D01*
G01X12265Y16844D01*
G01X12292Y16790D01*
G01X12319Y16763D01*
G01X12399Y16736D01*
G01X12641Y16736D01*
G01X11766Y17112D02*
G01X11766Y16736D01*
G01X11766Y17032D02*
G01X11820Y17085D01*
G01X11873Y17112D01*
G01X11954Y17112D01*
G01X12008Y17085D01*
G01X12061Y17032D01*
G01X12088Y16951D01*
G01X12088Y16897D01*
G01X12061Y16817D01*
G01X12008Y16763D01*
G01X11954Y16736D01*
G01X11873Y16736D01*
G01X11820Y16763D01*
G01X11766Y16817D01*
G01X11508Y17300D02*
G01X11508Y16844D01*
G01X11481Y16763D01*
G01X11428Y16736D01*
G01X11374Y16736D01*
G01X11589Y17112D02*
G01X11401Y17112D01*
G01X10542Y17220D02*
G01X10542Y16736D01*
G01X10783Y16978D02*
G01X10300Y16978D01*
G01X12641Y15400D02*
G01X12641Y14836D01*
G01X12641Y15400D02*
G01X12399Y15400D01*
G01X12319Y15373D01*
G01X12292Y15346D01*
G01X12265Y15292D01*
G01X12265Y15238D01*
G01X12292Y15184D01*
G01X12319Y15159D01*
G01X12399Y15132D01*
G01X12641Y15132D02*
G01X12399Y15132D01*
G01X12319Y15105D01*
G01X12292Y15078D01*
G01X12265Y15023D01*
G01X12265Y14944D01*
G01X12292Y14890D01*
G01X12319Y14863D01*
G01X12399Y14836D01*
G01X12641Y14836D01*
G01X11766Y15211D02*
G01X11766Y14836D01*
G01X11766Y15132D02*
G01X11820Y15184D01*
G01X11873Y15211D01*
G01X11954Y15211D01*
G01X12008Y15184D01*
G01X12061Y15132D01*
G01X12088Y15051D01*
G01X12088Y14996D01*
G01X12061Y14917D01*
G01X12008Y14863D01*
G01X11954Y14836D01*
G01X11873Y14836D01*
G01X11820Y14863D01*
G01X11766Y14917D01*
G01X11508Y15400D02*
G01X11508Y14944D01*
G01X11481Y14863D01*
G01X11428Y14836D01*
G01X11374Y14836D01*
G01X11589Y15211D02*
G01X11401Y15211D01*
G01X10783Y15078D02*
G01X10300Y15078D01*
G54D26*
G01X18086Y16600D02*
G01X18139Y16582D01*
G01X18175Y16528D01*
G01X18193Y16439D01*
G01X18193Y16385D01*
G01X18175Y16296D01*
G01X18139Y16242D01*
G01X18086Y16224D01*
G01X18050Y16224D01*
G01X17996Y16242D01*
G01X17960Y16296D01*
G01X17942Y16385D01*
G01X17942Y16439D01*
G01X17960Y16528D01*
G01X17996Y16582D01*
G01X18050Y16600D01*
G01X18086Y16600D01*
G01X17789Y16600D02*
G01X17592Y16600D01*
G01X17699Y16457D01*
G01X17645Y16457D01*
G01X17610Y16439D01*
G01X17592Y16421D01*
G01X17574Y16367D01*
G01X17574Y16331D01*
G01X17592Y16278D01*
G01X17628Y16242D01*
G01X17681Y16224D01*
G01X17735Y16224D01*
G01X17789Y16242D01*
G01X17806Y16260D01*
G01X17824Y16296D01*
G01X17223Y16474D02*
G01X17241Y16421D01*
G01X17277Y16385D01*
G01X17330Y16367D01*
G01X17348Y16367D01*
G01X17402Y16385D01*
G01X17438Y16421D01*
G01X17456Y16474D01*
G01X17456Y16492D01*
G01X17438Y16546D01*
G01X17402Y16582D01*
G01X17348Y16600D01*
G01X17330Y16600D01*
G01X17277Y16582D01*
G01X17241Y16546D01*
G01X17223Y16474D01*
G01X17223Y16385D01*
G01X17241Y16296D01*
G01X17277Y16242D01*
G01X17330Y16224D01*
G01X17366Y16224D01*
G01X17420Y16242D01*
G01X17438Y16278D01*
G01X16890Y16546D02*
G01X16908Y16582D01*
G01X16962Y16600D01*
G01X16998Y16600D01*
G01X17051Y16582D01*
G01X17087Y16528D01*
G01X17105Y16439D01*
G01X17105Y16349D01*
G01X17087Y16278D01*
G01X17051Y16242D01*
G01X16998Y16224D01*
G01X16980Y16224D01*
G01X16926Y16242D01*
G01X16890Y16278D01*
G01X16872Y16331D01*
G01X16872Y16349D01*
G01X16890Y16403D01*
G01X16926Y16439D01*
G01X16980Y16457D01*
G01X16998Y16457D01*
G01X17051Y16439D01*
G01X17087Y16403D01*
G01X17105Y16349D01*
G01X16736Y16510D02*
G01X16736Y16528D01*
G01X16718Y16564D01*
G01X16701Y16582D01*
G01X16665Y16600D01*
G01X16593Y16600D01*
G01X16557Y16582D01*
G01X16539Y16564D01*
G01X16522Y16528D01*
G01X16522Y16492D01*
G01X16539Y16457D01*
G01X16575Y16403D01*
G01X16754Y16224D01*
G01X16504Y16224D01*
G01X16242Y16600D02*
G01X16386Y16224D01*
G01X16242Y16600D02*
G01X16099Y16224D01*
G01X16332Y16349D02*
G01X16153Y16349D01*

%LPD*%
G36*
G01X14508Y26611D02*
G01X14485Y26609D01*
G01X14414Y26619D01*
G01X14353Y26650D01*
G01X14327Y26673D01*
G01X14303Y26703D01*
G01X14280Y26741D01*
G01X14259Y26786D01*
G01X13950Y27486D01*
G01X14063Y27486D01*
G01X14282Y26977D01*
G01X14505Y27486D01*
G01X14625Y27486D01*
G01X14343Y26851D01*
G01X14364Y26807D01*
G01X14375Y26782D01*
G01X14388Y26761D01*
G01X14401Y26744D01*
G01X14414Y26730D01*
G01X14430Y26721D01*
G01X14447Y26713D01*
G01X14465Y26709D01*
G01X14485Y26707D01*
G01X14546Y26719D01*
G01X14600Y26755D01*
G01X14648Y26669D01*
G01X14633Y26655D01*
G01X14616Y26643D01*
G01X14597Y26633D01*
G01X14576Y26625D01*
G01X14553Y26618D01*
G01X14531Y26613D01*
G01X14508Y26611D01*
G37*

%LPC*%

%LPD*%
G36*
G01X1562Y26841D02*
G01X1517Y26840D01*
G01X1467Y26842D01*
G01X1422Y26848D01*
G01X1380Y26859D01*
G01X1342Y26875D01*
G01X1280Y26915D01*
G01X1236Y26967D01*
G01X1209Y27031D01*
G01X1200Y27102D01*
G01X1205Y27157D01*
G01X1221Y27207D01*
G01X1247Y27250D01*
G01X1284Y27286D01*
G01X1315Y27307D01*
G01X1352Y27324D01*
G01X1393Y27338D01*
G01X1440Y27347D01*
G01X1492Y27353D01*
G01X1550Y27355D01*
G01X1642Y27355D01*
G01X1619Y27586D01*
G01X1246Y27586D01*
G01X1246Y27690D01*
G01X1721Y27690D01*
G01X1765Y27251D01*
G01X1575Y27251D01*
G01X1510Y27248D01*
G01X1456Y27241D01*
G01X1411Y27228D01*
G01X1378Y27211D01*
G01X1334Y27163D01*
G01X1319Y27096D01*
G01X1333Y27034D01*
G01X1373Y26986D01*
G01X1401Y26969D01*
G01X1435Y26957D01*
G01X1475Y26949D01*
G01X1519Y26946D01*
G01X1592Y26953D01*
G01X1661Y26971D01*
G01X1722Y27000D01*
G01X1771Y27036D01*
G01X1826Y26942D01*
G01X1798Y26919D01*
G01X1765Y26899D01*
G01X1729Y26881D01*
G01X1690Y26867D01*
G01X1648Y26855D01*
G01X1605Y26846D01*
G01X1562Y26841D01*
G37*

%LPC*%

%LPD*%
G36*
G01X6044Y26843D02*
G01X5981Y26840D01*
G01X5937Y26841D01*
G01X5894Y26846D01*
G01X5851Y26855D01*
G01X5809Y26867D01*
G01X5769Y26883D01*
G01X5732Y26901D01*
G01X5696Y26923D01*
G01X5663Y26946D01*
G01X5663Y27275D01*
G01X5780Y27275D01*
G01X5780Y27001D01*
G01X5823Y26977D01*
G01X5871Y26960D01*
G01X5921Y26950D01*
G01X5976Y26946D01*
G01X6022Y26949D01*
G01X6066Y26957D01*
G01X6107Y26970D01*
G01X6147Y26988D01*
G01X6183Y27011D01*
G01X6215Y27038D01*
G01X6243Y27069D01*
G01X6267Y27105D01*
G01X6285Y27142D01*
G01X6299Y27183D01*
G01X6307Y27225D01*
G01X6310Y27269D01*
G01X6307Y27314D01*
G01X6299Y27357D01*
G01X6285Y27397D01*
G01X6267Y27436D01*
G01X6243Y27471D01*
G01X6215Y27501D01*
G01X6183Y27528D01*
G01X6147Y27551D01*
G01X6107Y27569D01*
G01X6065Y27582D01*
G01X6021Y27590D01*
G01X5975Y27592D01*
G01X5928Y27590D01*
G01X5884Y27582D01*
G01X5842Y27568D01*
G01X5803Y27549D01*
G01X5766Y27525D01*
G01X5732Y27496D01*
G01X5657Y27569D01*
G01X5687Y27600D01*
G01X5721Y27626D01*
G01X5757Y27648D01*
G01X5796Y27667D01*
G01X5839Y27681D01*
G01X5883Y27691D01*
G01X5930Y27698D01*
G01X5980Y27700D01*
G01X6042Y27696D01*
G01X6101Y27686D01*
G01X6157Y27668D01*
G01X6210Y27644D01*
G01X6259Y27613D01*
G01X6302Y27578D01*
G01X6340Y27537D01*
G01X6372Y27490D01*
G01X6397Y27440D01*
G01X6415Y27386D01*
G01X6426Y27329D01*
G01X6430Y27269D01*
G01X6426Y27210D01*
G01X6415Y27153D01*
G01X6397Y27100D01*
G01X6372Y27050D01*
G01X6340Y27003D01*
G01X6302Y26962D01*
G01X6260Y26926D01*
G01X6211Y26896D01*
G01X6159Y26871D01*
G01X6103Y26853D01*
G01X6044Y26843D01*
G37*

%LPC*%

%LPD*%
G36*
G01X15043Y26841D02*
G01X14997Y26840D01*
G01X14945Y26842D01*
G01X14898Y26848D01*
G01X14855Y26857D01*
G01X14817Y26871D01*
G01X14753Y26909D01*
G01X14707Y26959D01*
G01X14681Y27015D01*
G01X14672Y27078D01*
G01X14682Y27150D01*
G01X14713Y27205D01*
G01X14758Y27246D01*
G01X14811Y27275D01*
G01X14843Y27286D01*
G01X14878Y27297D01*
G01X14919Y27309D01*
G01X14964Y27319D01*
G01X15030Y27336D01*
G01X15080Y27352D01*
G01X15100Y27360D01*
G01X15119Y27369D01*
G01X15136Y27381D01*
G01X15152Y27394D01*
G01X15164Y27408D01*
G01X15172Y27425D01*
G01X15178Y27443D01*
G01X15180Y27463D01*
G01X15167Y27517D01*
G01X15128Y27559D01*
G01X15100Y27576D01*
G01X15065Y27588D01*
G01X15023Y27595D01*
G01X14976Y27598D01*
G01X14918Y27593D01*
G01X14859Y27580D01*
G01X14800Y27558D01*
G01X14746Y27528D01*
G01X14706Y27625D01*
G01X14763Y27656D01*
G01X14830Y27680D01*
G01X14902Y27694D01*
G01X14976Y27700D01*
G01X15027Y27698D01*
G01X15074Y27691D01*
G01X15116Y27681D01*
G01X15155Y27667D01*
G01X15218Y27629D01*
G01X15263Y27580D01*
G01X15289Y27523D01*
G01X15297Y27459D01*
G01X15287Y27387D01*
G01X15256Y27332D01*
G01X15210Y27290D01*
G01X15156Y27261D01*
G01X15125Y27250D01*
G01X15089Y27238D01*
G01X15049Y27227D01*
G01X15003Y27215D01*
G01X14936Y27198D01*
G01X14886Y27184D01*
G01X14867Y27175D01*
G01X14848Y27165D01*
G01X14832Y27154D01*
G01X14817Y27142D01*
G01X14804Y27127D01*
G01X14796Y27111D01*
G01X14790Y27092D01*
G01X14789Y27071D01*
G01X14802Y27019D01*
G01X14840Y26978D01*
G01X14869Y26962D01*
G01X14905Y26951D01*
G01X14947Y26944D01*
G01X14997Y26942D01*
G01X15036Y26943D01*
G01X15075Y26948D01*
G01X15113Y26957D01*
G01X15151Y26969D01*
G01X15219Y27000D01*
G01X15273Y27040D01*
G01X15318Y26946D01*
G01X15290Y26923D01*
G01X15258Y26903D01*
G01X15221Y26885D01*
G01X15180Y26869D01*
G01X15135Y26856D01*
G01X15090Y26847D01*
G01X15043Y26841D01*
G37*

%LPC*%

%LPD*%
G36*
G01X15789Y26841D02*
G01X15742Y26840D01*
G01X15690Y26842D01*
G01X15643Y26848D01*
G01X15600Y26857D01*
G01X15561Y26871D01*
G01X15498Y26909D01*
G01X15452Y26959D01*
G01X15426Y27015D01*
G01X15417Y27078D01*
G01X15427Y27150D01*
G01X15457Y27205D01*
G01X15503Y27246D01*
G01X15556Y27275D01*
G01X15588Y27286D01*
G01X15624Y27297D01*
G01X15664Y27309D01*
G01X15710Y27319D01*
G01X15775Y27336D01*
G01X15825Y27352D01*
G01X15845Y27360D01*
G01X15864Y27369D01*
G01X15881Y27381D01*
G01X15897Y27394D01*
G01X15909Y27408D01*
G01X15918Y27425D01*
G01X15924Y27443D01*
G01X15926Y27463D01*
G01X15913Y27517D01*
G01X15875Y27559D01*
G01X15846Y27576D01*
G01X15811Y27588D01*
G01X15769Y27595D01*
G01X15722Y27598D01*
G01X15663Y27593D01*
G01X15603Y27580D01*
G01X15545Y27558D01*
G01X15490Y27528D01*
G01X15452Y27625D01*
G01X15508Y27656D01*
G01X15575Y27680D01*
G01X15647Y27694D01*
G01X15722Y27700D01*
G01X15772Y27698D01*
G01X15819Y27691D01*
G01X15861Y27681D01*
G01X15900Y27667D01*
G01X15963Y27629D01*
G01X16007Y27580D01*
G01X16034Y27523D01*
G01X16043Y27459D01*
G01X16032Y27387D01*
G01X16002Y27332D01*
G01X15956Y27290D01*
G01X15902Y27261D01*
G01X15870Y27250D01*
G01X15834Y27238D01*
G01X15794Y27227D01*
G01X15748Y27215D01*
G01X15682Y27198D01*
G01X15631Y27184D01*
G01X15612Y27175D01*
G01X15594Y27165D01*
G01X15577Y27154D01*
G01X15563Y27142D01*
G01X15550Y27127D01*
G01X15541Y27111D01*
G01X15535Y27092D01*
G01X15534Y27071D01*
G01X15547Y27019D01*
G01X15585Y26978D01*
G01X15615Y26962D01*
G01X15651Y26951D01*
G01X15693Y26944D01*
G01X15742Y26942D01*
G01X15781Y26943D01*
G01X15819Y26948D01*
G01X15858Y26957D01*
G01X15896Y26969D01*
G01X15964Y27000D01*
G01X16018Y27040D01*
G01X16064Y26946D01*
G01X16036Y26923D01*
G01X16003Y26903D01*
G01X15966Y26885D01*
G01X15925Y26869D01*
G01X15880Y26856D01*
G01X15835Y26847D01*
G01X15789Y26841D01*
G37*

%LPC*%

%LPD*%
G36*
G01X3232Y26845D02*
G01X3182Y26842D01*
G01X3107Y26849D01*
G01X3038Y26869D01*
G01X2980Y26901D01*
G01X2932Y26946D01*
G01X2996Y27019D01*
G01X3033Y26986D01*
G01X3076Y26963D01*
G01X3124Y26948D01*
G01X3178Y26944D01*
G01X3223Y26947D01*
G01X3265Y26956D01*
G01X3302Y26972D01*
G01X3336Y26994D01*
G01X3364Y27022D01*
G01X3386Y27054D01*
G01X3401Y27090D01*
G01X3409Y27130D01*
G01X2894Y27130D01*
G01X2892Y27140D01*
G01X2891Y27148D01*
G01X2891Y27157D01*
G01X2890Y27163D01*
G01X2893Y27210D01*
G01X2901Y27254D01*
G01X2913Y27296D01*
G01X2930Y27334D01*
G01X2953Y27369D01*
G01X2979Y27401D01*
G01X3009Y27428D01*
G01X3042Y27451D01*
G01X3079Y27469D01*
G01X3119Y27481D01*
G01X3161Y27489D01*
G01X3205Y27492D01*
G01X3250Y27489D01*
G01X3292Y27481D01*
G01X3331Y27469D01*
G01X3369Y27451D01*
G01X3403Y27428D01*
G01X3434Y27401D01*
G01X3460Y27369D01*
G01X3482Y27334D01*
G01X3501Y27296D01*
G01X3514Y27255D01*
G01X3522Y27213D01*
G01X3525Y27167D01*
G01X3522Y27122D01*
G01X3514Y27078D01*
G01X3500Y27038D01*
G01X3482Y27000D01*
G01X3458Y26965D01*
G01X3430Y26934D01*
G01X3398Y26907D01*
G01X3361Y26884D01*
G01X3321Y26865D01*
G01X3278Y26853D01*
G01X3232Y26845D01*
G37*

%LPC*%
G36*
G01X3009Y27250D02*
G01X3001Y27211D01*
G01X3409Y27211D01*
G01X3402Y27251D01*
G01X3388Y27286D01*
G01X3369Y27317D01*
G01X3344Y27344D01*
G01X3314Y27366D01*
G01X3281Y27382D01*
G01X3245Y27391D01*
G01X3205Y27394D01*
G01X3166Y27391D01*
G01X3129Y27382D01*
G01X3096Y27366D01*
G01X3067Y27344D01*
G01X3042Y27316D01*
G01X3022Y27285D01*
G01X3009Y27250D01*
G37*

%LPD*%
G36*
G01X5316Y26846D02*
G01X5265Y26842D01*
G01X5197Y26848D01*
G01X5138Y26865D01*
G01X5092Y26894D01*
G01X5057Y26934D01*
G01X5057Y26850D01*
G01X4948Y26850D01*
G01X4948Y27234D01*
G01X4952Y27294D01*
G01X4965Y27346D01*
G01X4987Y27390D01*
G01X5017Y27427D01*
G01X5056Y27455D01*
G01X5103Y27475D01*
G01X5157Y27488D01*
G01X5219Y27492D01*
G01X5294Y27486D01*
G01X5365Y27471D01*
G01X5429Y27445D01*
G01X5482Y27409D01*
G01X5434Y27323D01*
G01X5393Y27352D01*
G01X5344Y27373D01*
G01X5289Y27387D01*
G01X5234Y27392D01*
G01X5159Y27382D01*
G01X5105Y27353D01*
G01X5073Y27304D01*
G01X5063Y27238D01*
G01X5063Y27215D01*
G01X5246Y27215D01*
G01X5307Y27212D01*
G01X5361Y27203D01*
G01X5405Y27187D01*
G01X5440Y27165D01*
G01X5466Y27137D01*
G01X5485Y27105D01*
G01X5497Y27069D01*
G01X5501Y27030D01*
G01X5496Y26990D01*
G01X5484Y26953D01*
G01X5465Y26921D01*
G01X5436Y26894D01*
G01X5402Y26871D01*
G01X5362Y26855D01*
G01X5316Y26846D01*
G37*

%LPC*%
G36*
G01X5185Y26939D02*
G01X5246Y26932D01*
G01X5305Y26938D01*
G01X5350Y26959D01*
G01X5366Y26974D01*
G01X5377Y26992D01*
G01X5384Y27012D01*
G01X5386Y27034D01*
G01X5377Y27077D01*
G01X5350Y27108D01*
G01X5304Y27126D01*
G01X5240Y27132D01*
G01X5063Y27132D01*
G01X5063Y27044D01*
G01X5091Y26996D01*
G01X5132Y26961D01*
G01X5185Y26939D01*
G37*

%LPD*%
G36*
G01X7370Y26845D02*
G01X7322Y26842D01*
G01X7246Y26849D01*
G01X7177Y26869D01*
G01X7119Y26901D01*
G01X7071Y26946D01*
G01X7134Y27019D01*
G01X7171Y26986D01*
G01X7214Y26963D01*
G01X7263Y26948D01*
G01X7318Y26944D01*
G01X7363Y26947D01*
G01X7404Y26956D01*
G01X7441Y26972D01*
G01X7475Y26994D01*
G01X7503Y27022D01*
G01X7524Y27054D01*
G01X7539Y27090D01*
G01X7547Y27130D01*
G01X7031Y27130D01*
G01X7031Y27140D01*
G01X7030Y27148D01*
G01X7030Y27157D01*
G01X7030Y27163D01*
G01X7032Y27210D01*
G01X7039Y27254D01*
G01X7052Y27296D01*
G01X7069Y27334D01*
G01X7092Y27369D01*
G01X7118Y27401D01*
G01X7147Y27428D01*
G01X7181Y27451D01*
G01X7218Y27469D01*
G01X7257Y27481D01*
G01X7299Y27489D01*
G01X7343Y27492D01*
G01X7388Y27489D01*
G01X7431Y27481D01*
G01X7470Y27469D01*
G01X7507Y27451D01*
G01X7542Y27428D01*
G01X7572Y27401D01*
G01X7599Y27369D01*
G01X7622Y27334D01*
G01X7640Y27296D01*
G01X7653Y27255D01*
G01X7661Y27213D01*
G01X7664Y27167D01*
G01X7661Y27122D01*
G01X7653Y27078D01*
G01X7639Y27038D01*
G01X7621Y27000D01*
G01X7597Y26965D01*
G01X7569Y26934D01*
G01X7536Y26907D01*
G01X7500Y26884D01*
G01X7459Y26865D01*
G01X7416Y26853D01*
G01X7370Y26845D01*
G37*

%LPC*%
G36*
G01X7147Y27250D02*
G01X7139Y27211D01*
G01X7547Y27211D01*
G01X7540Y27251D01*
G01X7527Y27286D01*
G01X7507Y27317D01*
G01X7482Y27344D01*
G01X7453Y27366D01*
G01X7420Y27382D01*
G01X7383Y27391D01*
G01X7343Y27394D01*
G01X7304Y27391D01*
G01X7268Y27382D01*
G01X7235Y27366D01*
G01X7206Y27344D01*
G01X7180Y27316D01*
G01X7161Y27285D01*
G01X7147Y27250D01*
G37*

%LPD*%
G36*
G01X8062Y26844D02*
G01X8023Y26842D01*
G01X7963Y26846D01*
G01X7909Y26855D01*
G01X7863Y26871D01*
G01X7822Y26894D01*
G01X7790Y26921D01*
G01X7767Y26953D01*
G01X7753Y26990D01*
G01X7748Y27030D01*
G01X7757Y27088D01*
G01X7781Y27132D01*
G01X7799Y27148D01*
G01X7819Y27162D01*
G01X7840Y27174D01*
G01X7863Y27182D01*
G01X7918Y27197D01*
G01X7988Y27211D01*
G01X8014Y27216D01*
G01X8038Y27221D01*
G01X8059Y27225D01*
G01X8077Y27230D01*
G01X8092Y27234D01*
G01X8106Y27241D01*
G01X8118Y27248D01*
G01X8130Y27257D01*
G01X8139Y27266D01*
G01X8146Y27278D01*
G01X8150Y27291D01*
G01X8152Y27305D01*
G01X8149Y27325D01*
G01X8142Y27342D01*
G01X8130Y27357D01*
G01X8114Y27369D01*
G01X8066Y27388D01*
G01X8002Y27394D01*
G01X7950Y27390D01*
G01X7902Y27381D01*
G01X7858Y27365D01*
G01X7818Y27342D01*
G01X7768Y27434D01*
G01X7815Y27457D01*
G01X7873Y27476D01*
G01X7937Y27488D01*
G01X8001Y27492D01*
G01X8058Y27488D01*
G01X8109Y27478D01*
G01X8155Y27462D01*
G01X8193Y27440D01*
G01X8225Y27411D01*
G01X8247Y27379D01*
G01X8261Y27342D01*
G01X8265Y27301D01*
G01X8257Y27241D01*
G01X8231Y27196D01*
G01X8192Y27165D01*
G01X8147Y27144D01*
G01X8092Y27128D01*
G01X8022Y27115D01*
G01X7995Y27111D01*
G01X7972Y27107D01*
G01X7952Y27103D01*
G01X7935Y27098D01*
G01X7920Y27094D01*
G01X7907Y27088D01*
G01X7894Y27082D01*
G01X7884Y27073D01*
G01X7875Y27065D01*
G01X7868Y27054D01*
G01X7865Y27042D01*
G01X7864Y27028D01*
G01X7873Y26990D01*
G01X7901Y26963D01*
G01X7948Y26947D01*
G01X8014Y26942D01*
G01X8075Y26946D01*
G01X8135Y26959D01*
G01X8191Y26980D01*
G01X8238Y27007D01*
G01X8285Y26917D01*
G01X8238Y26887D01*
G01X8173Y26863D01*
G01X8137Y26854D01*
G01X8100Y26848D01*
G01X8062Y26844D01*
G37*

%LPC*%

%LPD*%
G36*
G01X8788Y26846D02*
G01X8738Y26842D01*
G01X8669Y26848D01*
G01X8610Y26865D01*
G01X8564Y26894D01*
G01X8528Y26934D01*
G01X8528Y26850D01*
G01X8419Y26850D01*
G01X8419Y27234D01*
G01X8424Y27294D01*
G01X8437Y27346D01*
G01X8459Y27390D01*
G01X8489Y27427D01*
G01X8528Y27455D01*
G01X8575Y27475D01*
G01X8629Y27488D01*
G01X8692Y27492D01*
G01X8766Y27486D01*
G01X8836Y27471D01*
G01X8901Y27445D01*
G01X8955Y27409D01*
G01X8906Y27323D01*
G01X8865Y27352D01*
G01X8815Y27373D01*
G01X8761Y27387D01*
G01X8705Y27392D01*
G01X8631Y27382D01*
G01X8577Y27353D01*
G01X8545Y27304D01*
G01X8535Y27238D01*
G01X8535Y27215D01*
G01X8717Y27215D01*
G01X8778Y27212D01*
G01X8832Y27203D01*
G01X8876Y27187D01*
G01X8911Y27165D01*
G01X8938Y27137D01*
G01X8957Y27105D01*
G01X8969Y27069D01*
G01X8972Y27030D01*
G01X8968Y26990D01*
G01X8956Y26953D01*
G01X8936Y26921D01*
G01X8909Y26894D01*
G01X8873Y26871D01*
G01X8833Y26855D01*
G01X8788Y26846D01*
G37*

%LPC*%
G36*
G01X8656Y26939D02*
G01X8718Y26932D01*
G01X8777Y26938D01*
G01X8822Y26959D01*
G01X8838Y26974D01*
G01X8849Y26992D01*
G01X8856Y27012D01*
G01X8859Y27034D01*
G01X8849Y27077D01*
G01X8822Y27108D01*
G01X8776Y27126D01*
G01X8711Y27132D01*
G01X8535Y27132D01*
G01X8535Y27044D01*
G01X8562Y26996D01*
G01X8603Y26961D01*
G01X8656Y26939D01*
G37*

%LPD*%
G36*
G01X12510Y26845D02*
G01X12460Y26842D01*
G01X12385Y26849D01*
G01X12318Y26869D01*
G01X12259Y26901D01*
G01X12210Y26946D01*
G01X12273Y27019D01*
G01X12311Y26986D01*
G01X12355Y26963D01*
G01X12403Y26948D01*
G01X12457Y26944D01*
G01X12502Y26947D01*
G01X12543Y26956D01*
G01X12580Y26972D01*
G01X12614Y26994D01*
G01X12642Y27022D01*
G01X12664Y27054D01*
G01X12679Y27090D01*
G01X12688Y27130D01*
G01X12172Y27130D01*
G01X12171Y27140D01*
G01X12170Y27148D01*
G01X12170Y27157D01*
G01X12169Y27163D01*
G01X12172Y27210D01*
G01X12180Y27254D01*
G01X12192Y27296D01*
G01X12210Y27334D01*
G01X12231Y27369D01*
G01X12257Y27401D01*
G01X12287Y27428D01*
G01X12321Y27451D01*
G01X12358Y27469D01*
G01X12397Y27481D01*
G01X12439Y27489D01*
G01X12484Y27492D01*
G01X12528Y27489D01*
G01X12570Y27481D01*
G01X12610Y27469D01*
G01X12647Y27451D01*
G01X12682Y27428D01*
G01X12712Y27401D01*
G01X12739Y27369D01*
G01X12761Y27334D01*
G01X12780Y27296D01*
G01X12792Y27255D01*
G01X12800Y27213D01*
G01X12802Y27167D01*
G01X12800Y27122D01*
G01X12792Y27078D01*
G01X12779Y27038D01*
G01X12760Y27000D01*
G01X12737Y26965D01*
G01X12709Y26934D01*
G01X12676Y26907D01*
G01X12639Y26884D01*
G01X12599Y26865D01*
G01X12556Y26853D01*
G01X12510Y26845D01*
G37*

%LPC*%
G36*
G01X12287Y27250D02*
G01X12280Y27211D01*
G01X12688Y27211D01*
G01X12680Y27251D01*
G01X12666Y27286D01*
G01X12647Y27317D01*
G01X12622Y27344D01*
G01X12593Y27366D01*
G01X12560Y27382D01*
G01X12523Y27391D01*
G01X12484Y27394D01*
G01X12444Y27391D01*
G01X12407Y27382D01*
G01X12374Y27366D01*
G01X12344Y27344D01*
G01X12320Y27316D01*
G01X12301Y27285D01*
G01X12287Y27250D01*
G37*

%LPD*%
G36*
G01X13068Y26846D02*
G01X13022Y26842D01*
G01X13003Y26843D01*
G01X12983Y26845D01*
G01X12964Y26849D01*
G01X12946Y26853D01*
G01X12928Y26860D01*
G01X12911Y26868D01*
G01X12897Y26877D01*
G01X12884Y26886D01*
G01X12919Y26969D01*
G01X12960Y26947D01*
G01X13010Y26940D01*
G01X13032Y26941D01*
G01X13052Y26946D01*
G01X13068Y26955D01*
G01X13082Y26967D01*
G01X13094Y26982D01*
G01X13102Y27001D01*
G01X13107Y27022D01*
G01X13109Y27046D01*
G01X13109Y27390D01*
G01X12927Y27390D01*
G01X12927Y27486D01*
G01X13109Y27486D01*
G01X13109Y27625D01*
G01X13223Y27625D01*
G01X13223Y27486D01*
G01X13331Y27486D01*
G01X13331Y27390D01*
G01X13223Y27390D01*
G01X13223Y27042D01*
G01X13220Y26996D01*
G01X13210Y26957D01*
G01X13194Y26922D01*
G01X13172Y26894D01*
G01X13142Y26871D01*
G01X13108Y26855D01*
G01X13068Y26846D01*
G37*

%LPC*%

%LPD*%
G36*
G01X13698Y26844D02*
G01X13660Y26842D01*
G01X13599Y26846D01*
G01X13546Y26855D01*
G01X13499Y26871D01*
G01X13459Y26894D01*
G01X13426Y26921D01*
G01X13403Y26953D01*
G01X13389Y26990D01*
G01X13385Y27030D01*
G01X13393Y27088D01*
G01X13418Y27132D01*
G01X13436Y27148D01*
G01X13455Y27162D01*
G01X13477Y27174D01*
G01X13500Y27182D01*
G01X13554Y27197D01*
G01X13623Y27211D01*
G01X13651Y27216D01*
G01X13675Y27221D01*
G01X13695Y27225D01*
G01X13713Y27230D01*
G01X13728Y27234D01*
G01X13742Y27241D01*
G01X13755Y27248D01*
G01X13767Y27257D01*
G01X13776Y27266D01*
G01X13782Y27278D01*
G01X13786Y27291D01*
G01X13788Y27305D01*
G01X13785Y27325D01*
G01X13778Y27342D01*
G01X13766Y27357D01*
G01X13750Y27369D01*
G01X13702Y27388D01*
G01X13638Y27394D01*
G01X13587Y27390D01*
G01X13539Y27381D01*
G01X13495Y27365D01*
G01X13455Y27342D01*
G01X13406Y27434D01*
G01X13452Y27457D01*
G01X13510Y27476D01*
G01X13573Y27488D01*
G01X13636Y27492D01*
G01X13694Y27488D01*
G01X13745Y27478D01*
G01X13790Y27462D01*
G01X13830Y27440D01*
G01X13861Y27411D01*
G01X13884Y27379D01*
G01X13897Y27342D01*
G01X13902Y27301D01*
G01X13893Y27241D01*
G01X13868Y27196D01*
G01X13829Y27165D01*
G01X13784Y27144D01*
G01X13728Y27128D01*
G01X13659Y27115D01*
G01X13632Y27111D01*
G01X13608Y27107D01*
G01X13588Y27103D01*
G01X13572Y27098D01*
G01X13557Y27094D01*
G01X13543Y27088D01*
G01X13531Y27082D01*
G01X13521Y27073D01*
G01X13511Y27065D01*
G01X13505Y27054D01*
G01X13501Y27042D01*
G01X13500Y27028D01*
G01X13509Y26990D01*
G01X13538Y26963D01*
G01X13585Y26947D01*
G01X13652Y26942D01*
G01X13712Y26946D01*
G01X13772Y26959D01*
G01X13828Y26980D01*
G01X13875Y27007D01*
G01X13922Y26917D01*
G01X13874Y26887D01*
G01X13810Y26863D01*
G01X13773Y26854D01*
G01X13736Y26848D01*
G01X13698Y26844D01*
G37*

%LPC*%

%LPD*%
G36*
G01X2242Y26850D02*
G01X2123Y26850D01*
G01X1846Y27486D01*
G01X1959Y27486D01*
G01X2182Y26976D01*
G01X2400Y27486D01*
G01X2519Y27486D01*
G01X2242Y26850D01*
G37*

%LPC*%

%LPD*%
G36*
G01X3794Y26850D02*
G01X3678Y26850D01*
G01X3678Y27215D01*
G01X3682Y27280D01*
G01X3695Y27336D01*
G01X3717Y27383D01*
G01X3748Y27421D01*
G01X3787Y27452D01*
G01X3831Y27474D01*
G01X3882Y27487D01*
G01X3938Y27492D01*
G01X3978Y27490D01*
G01X4015Y27484D01*
G01X4050Y27474D01*
G01X4082Y27461D01*
G01X4140Y27423D01*
G01X4184Y27373D01*
G01X4221Y27425D01*
G01X4271Y27461D01*
G01X4334Y27484D01*
G01X4403Y27492D01*
G01X4472Y27485D01*
G01X4532Y27465D01*
G01X4583Y27434D01*
G01X4623Y27390D01*
G01X4623Y27486D01*
G01X4734Y27486D01*
G01X4734Y26850D01*
G01X4619Y26850D01*
G01X4619Y27178D01*
G01X4615Y27226D01*
G01X4606Y27267D01*
G01X4590Y27303D01*
G01X4567Y27334D01*
G01X4539Y27357D01*
G01X4507Y27375D01*
G01X4469Y27385D01*
G01X4428Y27388D01*
G01X4358Y27377D01*
G01X4307Y27342D01*
G01X4288Y27315D01*
G01X4274Y27283D01*
G01X4266Y27246D01*
G01X4263Y27203D01*
G01X4263Y26850D01*
G01X4148Y26850D01*
G01X4148Y27178D01*
G01X4145Y27226D01*
G01X4136Y27267D01*
G01X4119Y27303D01*
G01X4096Y27334D01*
G01X4069Y27357D01*
G01X4036Y27375D01*
G01X3999Y27385D01*
G01X3957Y27388D01*
G01X3888Y27377D01*
G01X3836Y27342D01*
G01X3817Y27315D01*
G01X3804Y27283D01*
G01X3796Y27246D01*
G01X3794Y27203D01*
G01X3794Y26850D01*
G37*

%LPC*%

%LPD*%
G36*
G01X6869Y26850D02*
G01X6755Y26850D01*
G01X6755Y27167D01*
G01X6751Y27215D01*
G01X6741Y27258D01*
G01X6725Y27294D01*
G01X6702Y27326D01*
G01X6672Y27350D01*
G01X6638Y27367D01*
G01X6598Y27378D01*
G01X6555Y27382D01*
G01X6547Y27381D01*
G01X6539Y27381D01*
G01X6533Y27380D01*
G01X6527Y27380D01*
G01X6527Y27492D01*
G01X6605Y27484D01*
G01X6671Y27463D01*
G01X6722Y27427D01*
G01X6760Y27378D01*
G01X6760Y27486D01*
G01X6869Y27486D01*
G01X6869Y26850D01*
G37*

%LPC*%

%LPD*%
G36*
G01X9619Y26850D02*
G01X9044Y26850D01*
G01X9044Y26953D01*
G01X9500Y26953D01*
G01X9500Y27690D01*
G01X9619Y27690D01*
G01X9619Y26850D01*
G37*

%LPC*%

%LPD*%
G36*
G01X11068Y26850D02*
G01X10953Y26850D01*
G01X10953Y27215D01*
G01X10958Y27280D01*
G01X10971Y27336D01*
G01X10993Y27383D01*
G01X11023Y27421D01*
G01X11062Y27452D01*
G01X11106Y27474D01*
G01X11157Y27487D01*
G01X11214Y27492D01*
G01X11253Y27490D01*
G01X11290Y27484D01*
G01X11326Y27474D01*
G01X11359Y27461D01*
G01X11415Y27423D01*
G01X11459Y27373D01*
G01X11496Y27425D01*
G01X11547Y27461D01*
G01X11610Y27484D01*
G01X11680Y27492D01*
G01X11747Y27485D01*
G01X11807Y27465D01*
G01X11859Y27434D01*
G01X11900Y27390D01*
G01X11900Y27486D01*
G01X12010Y27486D01*
G01X12010Y26850D01*
G01X11894Y26850D01*
G01X11894Y27178D01*
G01X11891Y27226D01*
G01X11881Y27267D01*
G01X11865Y27303D01*
G01X11843Y27334D01*
G01X11815Y27357D01*
G01X11782Y27375D01*
G01X11745Y27385D01*
G01X11703Y27388D01*
G01X11634Y27377D01*
G01X11581Y27342D01*
G01X11563Y27315D01*
G01X11550Y27283D01*
G01X11542Y27246D01*
G01X11539Y27203D01*
G01X11539Y26850D01*
G01X11423Y26850D01*
G01X11423Y27178D01*
G01X11420Y27226D01*
G01X11411Y27267D01*
G01X11395Y27303D01*
G01X11372Y27334D01*
G01X11344Y27357D01*
G01X11312Y27375D01*
G01X11275Y27385D01*
G01X11234Y27388D01*
G01X11163Y27377D01*
G01X11111Y27342D01*
G01X11093Y27315D01*
G01X11079Y27283D01*
G01X11071Y27246D01*
G01X11068Y27203D01*
G01X11068Y26850D01*
G37*

%LPC*%

%LPD*%
G36*
G01X16523Y26850D02*
G01X16406Y26850D01*
G01X16406Y27586D01*
G01X16118Y27586D01*
G01X16118Y27690D01*
G01X16811Y27690D01*
G01X16811Y27586D01*
G01X16523Y27586D01*
G01X16523Y26850D01*
G37*

%LPC*%

%LPD*%
G36*
G01X17228Y26850D02*
G01X17110Y26850D01*
G01X17110Y27586D01*
G01X16822Y27586D01*
G01X16822Y27690D01*
G01X17517Y27690D01*
G01X17517Y27586D01*
G01X17228Y27586D01*
G01X17228Y26850D01*
G37*

%LPC*%

%LPD*%
G36*
G01X17646Y26850D02*
G01X17519Y26850D01*
G01X17902Y27690D01*
G01X18021Y27690D01*
G01X18401Y26850D01*
G01X18277Y26850D01*
G01X18185Y27059D01*
G01X17739Y27059D01*
G01X17646Y26850D01*
G37*

%LPC*%
G36*
G01X17961Y27567D02*
G01X17781Y27155D01*
G01X18143Y27155D01*
G01X17961Y27567D01*
G37*

%LPD*%
G36*
G01X10460Y27130D02*
G01X10136Y27130D01*
G01X10136Y27228D01*
G01X10460Y27228D01*
G01X10460Y27130D01*
G37*

%LPC*%

%LPD*%
G54D11*
G75*
G01X7300Y13200D02*
G3X7800Y13700I0J500D01*
G01*
G75*
G01X7800Y18448D02*
G3X7300Y18901I-498J-48D01*
G01*
M00*
M02*
